# xmcd CD database file
#
# Track frame offsets:
#	150
#	18584
#	33357
#	51416
#	67226
#	84308
#	99159
#	115283
#	135712
#	149811
#	163847
#	188100
#
# Disc length: 2764 seconds
#
# Submitted via: cddb-tool 0.4.5
#
#blues,classical,country,data,folk,jazz,newage,reggae,rock,soundtrack,misc
#CATEGORY=misc
# Revision: 0
# Processed by: cddbd v1.5.1PL2 Copyright (c) Steve Scherf et al.
#
DISCID=af0aca0c
DTITLE=Damian Green Band - The Best Of The Damian Green Band
DYEAR=2005
DGENRE=folk
TTITLE0=Tchavolo Swing
TTITLE1=Ida Red
TTITLE2=The Devil With The Devil
TTITLE3=Take Me Back To Tulsa
TTITLE4=Ryan's Moustache
TTITLE5=Alabama Jubilee
TTITLE6=Fuli Tschai
TTITLE7=Main Street Blues
TTITLE8=Nagasaki
TTITLE9=My Window Faces South
TTITLE10=It Ain't Right
TTITLE11=Orange Blossom Special
EXTD=www.damiangreenband.com
EXTT0=
EXTT1=
EXTT2=
EXTT3=
EXTT4=
EXTT5=
EXTT6=
EXTT7=
EXTT8=
EXTT9=
EXTT10=
EXTT11=
PLAYORDER=
